<svg xmlns="http://www.w3.org/2000/svg" data-name="Layer 1" viewBox="0 0 64 64"><path d="M32.162 56.757a3.474 3.474 0 0 1-1.7-.384 3.082 3.082 0 0 1-1.111-1.026 4.452 4.452 0 0 1-.6-1.464 7.968 7.968 0 0 1 0-3.414A4.375 4.375 0 0 1 29.355 49a3.125 3.125 0 0 1 1.117-1.026 3.474 3.474 0 0 1 1.7-.384 3.661 3.661 0 0 1 1.92.5 2.2 2.2 0 0 1 .726.728 4.942 4.942 0 0 1 .534 1.26l-1.752.42a2.537 2.537 0 0 0-.528-.912 1.249 1.249 0 0 0-.96-.36 1.266 1.266 0 0 0-.63.151 1.391 1.391 0 0 0-.45.4 2.257 2.257 0 0 0-.294.563 3.93 3.93 0 0 0-.174.647 5.4 5.4 0 0 0-.078.659q-.018.327-.018.593a4.5 4.5 0 0 0 .42 2.178 1.332 1.332 0 0 0 1.272.714 1.636 1.636 0 0 0 .594-.1 1.269 1.269 0 0 0 .426-.27 2.009 2.009 0 0 0 .324-.414 5.4 5.4 0 0 0 .276-.528l1.8.468A5.237 5.237 0 0 1 35 55.419a3.026 3.026 0 0 1-.738.746A3.527 3.527 0 0 1 32.162 56.757zM23.279 11.681a.471.471 0 0 0 .457-.313 2.3 2.3 0 0 0 .149-.939 2.322 2.322 0 0 0-.149-.938.49.49 0 0 0-.914 0 2.3 2.3 0 0 0-.149.938 2.284 2.284 0 0 0 .149.939A.471.471 0 0 0 23.279 11.681zM26.81 11.681a.471.471 0 0 0 .457-.313 2.3 2.3 0 0 0 .149-.939 2.322 2.322 0 0 0-.149-.938.49.49 0 0 0-.914 0 2.322 2.322 0 0 0-.149.938 2.3 2.3 0 0 0 .149.939A.471.471 0 0 0 26.81 11.681zM16.911 11.681a.471.471 0 0 0 .457-.313 2.3 2.3 0 0 0 .149-.939 2.322 2.322 0 0 0-.149-.938.49.49 0 0 0-.914 0 2.3 2.3 0 0 0-.149.938 2.284 2.284 0 0 0 .149.939A.471.471 0 0 0 16.911 11.681z"/><path d="M53.84,17.73c-.02-.02-.04-.05-.06-.07a.484.484,0,0,0-.07-.08L39.42,3.29c-.02-.02-.05-.04-.07-.06s-.06-.05-.08-.07L39.12,3H14a4,4,0,0,0-4,4V57a4,4,0,0,0,4,4H50a4,4,0,0,0,4-4V17.88ZM39.71,6.41,50.59,17.29H41.71a2.006,2.006,0,0,1-2-2ZM37.476,25.018a1,1,0,0,1,1-1.733L45.255,27.2a1.5,1.5,0,0,1,0,2.6l-6.779,3.914a1,1,0,0,1-1-1.733L43.508,28.5Zm-1.7-5.514a1,1,0,0,1,.543,1.307L29.656,36.953a1,1,0,1,1-1.848-.764l6.667-16.142A1,1,0,0,1,35.781,19.5ZM31.946,8.77a2.291,2.291,0,0,0,.432-.052.789.789,0,0,0,.383-.2h.571v3.139h.561v.616H32.03v-.616h.557V9.3h-.641Zm-2.906,0a2.272,2.272,0,0,0,.432-.052.785.785,0,0,0,.383-.2h.571v3.139h.561v.616H29.125v-.616h.556V9.3H29.04Zm-3.531.986a1.883,1.883,0,0,1,.213-.611A1.272,1.272,0,0,1,26.14,8.7a1.4,1.4,0,0,1,1.341,0,1.279,1.279,0,0,1,.417.442,1.883,1.883,0,0,1,.213.611,3.878,3.878,0,0,1,.06.673,2.449,2.449,0,0,1-.338,1.386,1.148,1.148,0,0,1-1.023.512,1.2,1.2,0,0,1-.67-.171,1.275,1.275,0,0,1-.418-.443,1.874,1.874,0,0,1-.213-.608,3.821,3.821,0,0,1,0-1.349Zm-3.532,0a1.884,1.884,0,0,1,.214-.611,1.279,1.279,0,0,1,.417-.442,1.4,1.4,0,0,1,1.342,0,1.279,1.279,0,0,1,.417.442,1.906,1.906,0,0,1,.213.611,3.878,3.878,0,0,1,.06.673,2.457,2.457,0,0,1-.338,1.386,1.148,1.148,0,0,1-1.023.512,1.211,1.211,0,0,1-.671-.171,1.282,1.282,0,0,1-.417-.443,1.875,1.875,0,0,1-.214-.608,3.885,3.885,0,0,1,0-1.349ZM19.141,8.77a2.291,2.291,0,0,0,.432-.052.785.785,0,0,0,.383-.2h.571v3.139h.561v.616H19.226v-.616h.556V9.3h-.641Zm-.4,18.429,6.779-3.914a1,1,0,0,1,1,1.733L20.492,28.5l6.032,3.482a1,1,0,1,1-1,1.733L18.745,29.8a1.5,1.5,0,0,1,0-2.6ZM15.609,9.756a1.884,1.884,0,0,1,.214-.611A1.279,1.279,0,0,1,16.24,8.7a1.4,1.4,0,0,1,1.342,0A1.279,1.279,0,0,1,18,9.145a1.906,1.906,0,0,1,.213.611,3.878,3.878,0,0,1,.06.673,2.457,2.457,0,0,1-.338,1.386,1.148,1.148,0,0,1-1.023.512,1.211,1.211,0,0,1-.671-.171,1.282,1.282,0,0,1-.417-.443,1.875,1.875,0,0,1-.214-.608,3.885,3.885,0,0,1,0-1.349ZM52,57a2.006,2.006,0,0,1-2,2H14a2.006,2.006,0,0,1-2-2V41.46H25.73l2.7,3.09a.981.981,0,0,0,.75.34H52Z"/></svg>