<svg xmlns="http://www.w3.org/2000/svg" width="64" height="64" viewBox="0 0 64 64"><path fill-rule="evenodd" d="M 32 2 A 4 4 0 0 0 28 6 A 4 4 0 0 0 31 9.8671875 L 31 9.8964844 C 31.033718 9.8951699 31.067825 9.8958002 31.101562 9.8945312 A 4 4 0 0 0 32 10 A 4 4 0 0 0 32.867188 9.8984375 C 32.911246 9.9003655 32.956022 9.900139 33 9.9023438 L 33 9.8691406 A 4 4 0 0 0 36 6 A 4 4 0 0 0 32 2 z M 13.673828 9.6152344 A 4 4 0 0 0 10.787109 10.787109 A 4 4 0 0 0 10.787109 16.443359 A 4 4 0 0 0 16.443359 16.443359 A 4 4 0 0 0 16.443359 10.787109 A 4 4 0 0 0 13.673828 9.6152344 z M 50.443359 9.6152344 A 4 4 0 0 0 47.556641 10.787109 A 4 4 0 0 0 46.943359 15.642578 L 46.857422 15.728516 C 47.058202 15.913525 47.241086 16.116825 47.435547 16.308594 A 4 4 0 0 0 47.556641 16.443359 A 4 4 0 0 0 47.738281 16.613281 A 4 4 0 0 0 47.763672 16.636719 C 47.930624 16.808407 48.108719 16.969099 48.269531 17.146484 L 48.355469 17.060547 A 4 4 0 0 0 53.212891 16.443359 A 4 4 0 0 0 53.212891 10.787109 A 4 4 0 0 0 50.443359 9.6152344 z M 31.875 10.875 C 31.581609 10.875 31.29047 10.884657 31 10.896484 L 31 21.050781 C 31.329806 21.020857 31.662559 21 32 21 C 32.337441 21 32.670194 21.020857 33 21.050781 L 33 10.904297 C 32.627504 10.884782 32.252383 10.875 31.875 10.875 z M 17.740234 16.326172 C 17.24432 16.773699 16.771828 17.244109 16.320312 17.736328 L 23.552734 24.966797 C 23.980555 24.453893 24.453898 23.980561 24.966797 23.552734 L 17.740234 16.326172 z M 46.140625 16.445312 L 39.033203 23.552734 C 39.546102 23.980561 40.019445 24.453893 40.447266 24.966797 L 47.548828 17.867188 C 47.101398 17.371184 46.632755 16.896924 46.140625 16.445312 z M 32 22 A 10 10 0 0 0 22 32 A 10 10 0 0 0 32 42 A 10 10 0 0 0 42 32 A 10 10 0 0 0 32 22 z M 6 28 A 4 4 0 0 0 2 32 A 4 4 0 0 0 6 36 A 4 4 0 0 0 10 32 A 4 4 0 0 0 6 28 z M 58 28 A 4 4 0 0 0 54.132812 31 L 53.974609 31 C 53.989382 31.33156 54 31.664815 54 32 C 54 32.33576 53.989433 32.667877 53.974609 33 L 54.130859 33 A 4 4 0 0 0 58 36 A 4 4 0 0 0 62 32 A 4 4 0 0 0 58 28 z M 10.775391 31 C 10.759964 31.331473 10.75 31.66469 10.75 32 C 10.75 32.335915 10.759908 32.667935 10.775391 33 L 21.050781 33 C 21.020754 32.669635 21 32.338028 21 32 C 21 31.662558 21.020857 31.329806 21.050781 31 L 10.775391 31 z M 42.949219 31 C 42.979143 31.329806 43 31.662558 43 32 C 43 32.338028 42.979246 32.669635 42.949219 33 L 52.974609 33 C 52.990092 32.667935 53 32.335915 53 32 C 53 31.66469 52.990036 31.331473 52.974609 31 L 42.949219 31 z M 23.552734 39.033203 L 16.322266 46.263672 C 16.773549 46.755509 17.246568 47.224676 17.742188 47.671875 L 24.966797 40.447266 C 24.453897 40.019443 23.980557 39.546102 23.552734 39.033203 z M 40.447266 39.033203 C 40.019443 39.546102 39.546103 40.019443 39.033203 40.447266 L 46.138672 47.552734 C 46.63051 47.101453 47.099675 46.628431 47.546875 46.132812 L 40.447266 39.033203 z M 31 42.947266 L 31 53.101562 C 31.290473 53.113391 31.581606 53.125 31.875 53.125 C 32.252383 53.125 32.627504 53.113264 33 53.09375 L 33 42.947266 C 32.670191 42.97719 32.337445 43 32 43 C 31.662555 43 31.329809 42.97719 31 42.947266 z M 13.673828 46.384766 A 4 4 0 0 0 10.787109 47.556641 A 4 4 0 0 0 10.787109 53.212891 A 4 4 0 0 0 16.443359 53.212891 A 4 4 0 0 0 16.443359 47.556641 A 4 4 0 0 0 13.673828 46.384766 z M 50.443359 46.384766 A 4 4 0 0 0 48.357422 46.943359 L 48.267578 46.853516 C 48.077691 47.06292 47.868076 47.253319 47.669922 47.455078 A 4 4 0 0 0 47.556641 47.556641 A 4 4 0 0 0 47.376953 47.75 A 4 4 0 0 0 47.363281 47.763672 C 47.19251 47.93093 47.033135 48.109589 46.857422 48.271484 L 46.941406 48.355469 A 4 4 0 0 0 47.556641 53.212891 A 4 4 0 0 0 53.212891 53.212891 A 4 4 0 0 0 53.212891 47.556641 A 4 4 0 0 0 50.443359 46.384766 z M 32 54 A 4 4 0 0 0 31.115234 54.105469 C 31.076939 54.103979 31.03827 54.103055 31 54.101562 L 31 54.130859 A 4 4 0 0 0 28 58 A 4 4 0 0 0 32 62 A 4 4 0 0 0 36 58 A 4 4 0 0 0 33 54.132812 L 33 54.095703 C 32.957316 54.097843 32.913854 54.097685 32.871094 54.099609 A 4 4 0 0 0 32 54 z " color="#000" font-family="sans-serif" font-weight="400" overflow="visible" white-space="normal" style="line-height:normal;text-indent:0;text-align:start;text-decoration-line:none;text-decoration-style:solid;text-decoration-color:#000;text-transform:none;block-progression:tb;isolation:auto;mix-blend-mode:normal"/></svg>