<?xml version="1.0" encoding="UTF-8"?><svg xmlns="http://www.w3.org/2000/svg" xmlns:xlink="http://www.w3.org/1999/xlink" viewBox="0 0 32 32" version="1.1"><path d="M5.219 4l.093 1.094 1.75 19.781.063.688.656.187 7.938 2.219.25.062.281-.062 7.938-2.188.656-.187.062-.688 1.782-19.812.093-1.063h-1.093L6.313 4zm2.187 2l17.188.031-1.625 18L16 25.97 9 24.03zm2.407 3l.656 7.469h8.562l-.281 3.218-2.75.75h-.031l-2.75-.75-.156-2.062h-2.5l.343 3.969L15.97 23H16l5.063-1.406L21.75 14h-9.031l-.219-2.531h9.469L22.187 9z" id="surface1"/><metadata><rdf:RDF xmlns:rdf="http://www.w3.org/1999/02/22-rdf-syntax-ns#" xmlns:rdfs="http://www.w3.org/2000/01/rdf-schema#" xmlns:dc="http://purl.org/dc/elements/1.1/"><rdf:Description about="https://iconscout.com/legal#licenses" dc:title="html" dc:description="html" dc:publisher="Iconscout" dc:date="2017-12-30" dc:format="image/svg+xml" dc:language="en"><dc:creator><rdf:Bag><rdf:li>Icons8</rdf:li></rdf:Bag></dc:creator></rdf:Description></rdf:RDF></metadata></svg>